# This file uses centimeters as units for non-parametric coordinates.

g default
v -0.000003 -95.062065 100.000015
v -0.000004 -100.000000 95.000534
v 0.000000 -95.062080 100.000000
v 0.000093 -95.062065 100.000000
v -55.839924 100.000000 -76.857063
v -76.857056 100.000000 -55.839920
v 0.000000 100.000000 0.000000
v -95.000542 100.000000 0.000000
v -100.000023 95.062065 0.000000
v -90.350883 100.000000 29.356781
v -29.356789 100.000000 -90.350906
v -90.350883 100.000000 -29.356781
v -95.105675 95.062065 30.901707
v 0.000000 100.000000 -95.000565
v -76.857048 100.000000 55.839912
v -80.901718 95.062065 58.778538
v -58.778538 -95.062065 80.901711
v -30.901707 -95.062065 95.105667
v -30.901707 95.062065 95.105667
v -58.778538 95.062065 80.901711
v -55.839916 100.000000 76.857040
v -29.356781 100.000000 90.350876
v -0.000003 95.062065 100.000015
v -0.000004 100.000000 95.000534
v 0.000000 100.000000 95.000534
v 0.000093 95.062065 100.000000
v 0.000000 95.062080 100.000000
v -80.901718 -95.062065 58.778538
v 0.000289 95.062065 -100.000000
v 0.000000 95.062065 -100.000046
v 0.000000 95.062111 -100.000000
v 0.000000 -100.000000 95.000534
v -95.105675 95.062065 -30.901707
v -29.356781 -100.000000 90.350876
v -30.901714 95.062065 -95.105698
v -80.901726 95.062065 -58.778542
v -58.778549 95.062065 -80.901733
v 0.000000 -100.000000 0.000000
v -55.839916 -100.000000 76.857040
v -95.105675 -95.062065 30.901707
v -76.857048 -100.000000 55.839912
v -90.350883 -100.000000 29.356781
v -100.000023 -95.062065 0.000000
v -95.000542 -100.000000 0.000000
v -90.350883 -100.000000 -29.356781
v -29.356789 -100.000000 -90.350906
v -0.000000 -100.000000 -95.000565
v 0.000289 -95.062065 -100.000000
v 0.000000 -95.062065 -100.000046
v -76.857056 -100.000000 -55.839920
v -55.839924 -100.000000 -76.857063
v 0.000000 -95.062111 -100.000000
v -95.105675 -95.062065 -30.901707
v -30.901714 -95.062065 -95.105698
v -58.778549 -95.062065 -80.901733
v -80.901726 -95.062065 -58.778542
v 0.000000 -100.000000 95.000504
v 0.000000 -95.000504 100.000000
v 200.000000 -95.000504 95.000504
v 195.000504 -95.000504 100.000000
v 195.000504 -100.000000 95.000504
v 0.000000 100.000000 95.000504
v 0.000000 95.000504 100.000000
v 195.000504 100.000000 95.000504
v 195.000504 95.000504 100.000000
v 200.000000 95.000504 95.000504
v 0.000000 95.000504 -100.000000
v 0.000000 100.000000 -95.000504
v 195.000504 95.000504 -100.000000
v 195.000504 100.000000 -95.000504
v 200.000000 95.000504 -95.000504
v 0.000000 -100.000000 -95.000504
v 0.000000 -95.000504 -100.000000
v 195.000504 -100.000000 -95.000504
v 195.000504 -95.000504 -100.000000
v 200.000000 -95.000504 -95.000504
vt 0.550000 0.321781
vt 0.550104 0.312500
vt 0.550000 0.321781
vt 0.550000 0.321781
vt 0.412750 0.963527
vt 0.379911 0.930687
vt 0.500000 0.837500
vt 0.487396 0.688440
vt 0.487500 0.679158
vt 0.499896 0.688440
vt 0.454130 0.984611
vt 0.358827 0.889307
vt 0.500000 0.679158
vt 0.500000 0.991876
vt 0.351562 0.843437
vt 0.358827 0.797568
vt 0.512396 0.688440
vt 0.512500 0.679158
vt 0.379911 0.756188
vt 0.525000 0.321782
vt 0.537500 0.321781
vt 0.537500 0.679158
vt 0.525000 0.679158
vt 0.524896 0.688440
vt 0.412750 0.723348
vt 0.454130 0.702264
vt 0.537396 0.688440
vt 0.550000 0.679158
vt 0.500000 0.694999
vt 0.500000 0.694999
vt 0.549896 0.688440
vt 0.550000 0.679158
vt 0.375000 0.243828
vt 0.375000 0.243828
vt 0.375000 0.006172
vt 0.375000 0.006172
vt 0.550000 0.679158
vt 0.550312 0.688440
vt 0.512500 0.321781
vt 0.425000 0.679158
vt 0.425000 0.679158
vt 0.425000 0.679158
vt 0.550312 0.312500
vt 0.475000 0.679158
vt 0.437396 0.688440
vt 0.425312 0.688440
vt 0.537604 0.312500
vt 0.474896 0.688440
vt 0.437500 0.679158
vt 0.449896 0.688440
vt 0.462500 0.679158
vt 0.462396 0.688440
vt 0.450000 0.679158
vt 0.500000 0.304376
vt 0.500000 0.304376
vt 0.500000 0.150000
vt 0.454130 0.297111
vt 0.525104 0.312500
vt 0.412750 0.276027
vt 0.500000 0.321781
vt 0.512604 0.312500
vt 0.379911 0.243187
vt 0.358827 0.201807
vt 0.500104 0.312500
vt 0.487500 0.321781
vt 0.351562 0.155937
vt 0.358827 0.110068
vt 0.454130 0.014764
vt 0.500000 0.007499
vt 0.487604 0.312500
vt 0.425000 0.321782
vt 0.425000 0.321782
vt 0.379911 0.068688
vt 0.412750 0.035848
vt 0.425000 0.321782
vt 0.475000 0.321782
vt 0.437500 0.321781
vt 0.475104 0.312500
vt 0.462604 0.312500
vt 0.437604 0.312500
vt 0.450000 0.321781
vt 0.450104 0.312500
vt 0.462500 0.321781
vt 0.131249 0.000000
vt 0.125000 0.006172
vt 0.125000 0.243828
vt 0.131249 0.250000
vt 0.250000 0.250000
vt 0.368751 0.250000
vt 0.368751 0.000000
vt 0.250000 0.000000
vt 0.375000 0.743828
vt 0.375000 0.743828
vt 0.375000 0.506172
vt 0.375000 0.506172
vt 0.425312 0.312500
vt 0.125000 0.006249
vt 0.131249 -0.000000
vt 0.368751 -0.000000
vt 0.375000 0.006249
vt 0.375000 0.243751
vt 0.368751 0.250000
vt 0.131249 0.250000
vt 0.125000 0.243751
vt 0.618751 -0.000000
vt 0.618751 0.006249
vt 0.625000 0.993751
vt 0.618751 0.993751
vt 0.618751 0.756249
vt 0.625000 0.756249
vt 0.631249 0.006249
vt 0.631249 0.243751
vt 0.618751 0.243751
vt 0.375000 0.256249
vt 0.618751 0.256249
vt 0.625000 0.256249
vt 0.625000 0.493751
vt 0.618751 0.493751
vt 0.375000 0.506249
vt 0.375000 0.493751
vt 0.618751 0.506249
vt 0.625000 0.506249
vt 0.625000 0.743751
vt 0.618751 0.743751
vt 0.375000 0.756249
vt 0.375000 0.743751
vt 0.375000 0.993751
vt 0.868751 0.006249
vt 0.868751 0.243751
vn 0.000000 -0.711475 0.702712
vn 0.000000 -0.711475 0.702711
vn -0.110616 -0.707106 0.698402
vn -0.110616 -0.707106 0.698402
vn 0.000000 -0.711475 0.702712
vn 0.000000 1.000000 0.000000
vn 0.000000 1.000000 0.000000
vn 0.000000 1.000000 0.000000
vn -0.668320 0.711473 0.217151
vn -0.702714 0.711473 0.000000
vn -0.702714 0.711473 0.000000
vn -0.668320 0.711473 0.217151
vn 0.000000 1.000000 0.000000
vn 0.000000 1.000000 0.000000
vn 0.000000 1.000000 -0.000000
vn 0.000000 1.000000 0.000000
vn 0.000000 1.000000 0.000000
vn -0.568507 0.711473 0.413045
vn -0.568507 0.711473 0.413045
vn 0.000000 1.000000 -0.000000
vn -0.587785 0.000000 0.809017
vn -0.309017 0.000000 0.951057
vn -0.309017 0.000000 0.951057
vn -0.587785 0.000000 0.809017
vn -0.413044 0.711473 0.568507
vn -0.413044 0.711473 0.568508
vn 0.000000 1.000000 -0.000000
vn 0.000000 1.000000 0.000000
vn -0.217150 0.711472 0.668321
vn -0.217150 0.711472 0.668321
vn -0.156433 0.000000 0.987689
vn -0.156433 0.000000 0.987689
vn 0.000000 1.000000 0.000000
vn 0.000000 1.000000 0.000000
vn -0.110616 0.707106 0.698402
vn -0.110616 0.707106 0.698402
vn 0.208573 0.000000 0.978007
vn 0.208573 0.000000 0.978007
vn 0.000000 0.711475 0.702712
vn 0.000000 0.711475 0.702712
vn 0.000000 0.711475 0.702712
vn 0.000000 0.000000 -1.000000
vn 0.000000 0.000000 -1.000000
vn 0.000000 0.000000 -1.000000
vn 0.000000 0.000000 -1.000000
vn -0.809017 0.000000 0.587785
vn -0.809017 0.000000 0.587785
vn 0.106934 0.759548 -0.641602
vn -0.110616 0.707106 -0.698402
vn -0.110616 0.707106 -0.698402
vn -0.668321 0.711472 -0.217151
vn -0.668321 0.711472 -0.217151
vn -0.217151 0.711473 -0.668320
vn -0.110616 0.707106 -0.698402
vn -0.217151 0.711473 -0.668320
vn -0.217150 -0.711473 0.668321
vn -0.217150 -0.711473 0.668321
vn -0.413045 0.711473 -0.568507
vn -0.413045 0.711473 -0.568507
vn -0.568508 0.711473 -0.413045
vn -0.568508 0.711473 -0.413045
vn 0.000000 -1.000000 0.000000
vn 0.000000 -1.000000 0.000000
vn 0.000000 -1.000000 -0.000000
vn 0.000000 -1.000000 0.000000
vn -0.413045 -0.711473 0.568507
vn -0.413045 -0.711473 0.568507
vn 0.000000 -1.000000 -0.000000
vn -0.951057 0.000000 0.309017
vn -0.951057 0.000000 0.309017
vn -0.568507 -0.711473 0.413045
vn -0.568507 -0.711473 0.413045
vn 0.000000 -1.000000 -0.000000
vn 0.000000 -1.000000 -0.000000
vn -0.668320 -0.711473 0.217151
vn -0.668320 -0.711473 0.217151
vn -1.000000 0.000000 0.000000
vn -1.000000 0.000000 0.000000
vn 0.000000 -1.000000 0.000000
vn 0.000000 -1.000000 0.000000
vn 0.000000 -1.000000 0.000000
vn 0.000000 -1.000000 0.000000
vn -0.702714 -0.711473 -0.000000
vn -0.702714 -0.711473 -0.000000
vn 0.174977 0.000000 -0.984573
vn -0.156431 0.000000 -0.987689
vn -0.156431 0.000000 -0.987689
vn 0.174977 0.000000 -0.984573
vn 0.000000 -1.000000 -0.000000
vn 0.000000 -1.000000 -0.000000
vn -0.110616 -0.707106 -0.698402
vn 0.104882 -0.744973 -0.658798
vn -0.110616 -0.707106 -0.698402
vn -0.951057 0.000000 -0.309017
vn -0.951057 0.000000 -0.309017
vn -0.309017 0.000000 -0.951057
vn -0.309017 0.000000 -0.951057
vn -0.668321 -0.711473 -0.217151
vn -0.668321 -0.711473 -0.217151
vn -0.568508 -0.711473 -0.413045
vn -0.568507 -0.711473 -0.413045
vn -0.413045 -0.711473 -0.568507
vn -0.217151 -0.711473 -0.668320
vn -0.217151 -0.711473 -0.668320
vn -0.413045 -0.711473 -0.568507
vn -0.809017 0.000000 -0.587785
vn -0.809017 0.000000 -0.587785
vn -0.587786 0.000000 -0.809017
vn -0.587786 0.000000 -0.809017
vn 1.000000 -0.000000 0.000000
vn 1.000000 -0.000000 0.000000
vn 1.000000 -0.000000 0.000000
vn 1.000000 -0.000000 0.000000
vn 1.000000 -0.000000 0.000000
vn 1.000000 -0.000000 0.000000
vn 1.000000 -0.000000 0.000000
vn 1.000000 -0.000000 0.000000
vn 1.000000 -0.000000 0.000000
vn 1.000000 -0.000000 0.000000
vn -0.035521 0.000000 0.999369
vn -0.035521 0.000000 0.999369
vn -0.035521 0.000000 0.999369
vn -0.035521 0.000000 0.999369
vn -0.110616 -0.707106 -0.698402
vn -1.000000 0.000000 0.000000
vn -1.000000 0.000000 0.000000
vn -1.000000 0.000000 0.000000
vn -1.000000 0.000000 0.000000
vn -1.000000 0.000000 0.000000
vn -1.000000 0.000000 0.000000
vn -1.000000 0.000000 0.000000
vn -1.000000 0.000000 0.000000
vn 0.000000 -0.707107 0.707107
vn 0.000000 -0.707107 0.707107
vn 0.000000 -0.707107 0.707107
vn 0.000000 -0.707107 0.707107
vn 0.707106 -0.707107 0.000000
vn 0.707106 -0.707107 0.000000
vn 0.707106 -0.707107 0.000000
vn 0.707106 -0.707107 0.000000
vn 0.707107 0.000000 0.707106
vn 0.707107 0.000000 0.707106
vn 0.707107 0.000000 0.707106
vn 0.707107 0.000000 0.707106
vn 0.000000 0.707107 0.707107
vn 0.000000 0.707107 0.707107
vn 0.000000 0.707107 0.707107
vn 0.000000 0.707107 0.707107
vn 0.707106 0.707107 0.000000
vn 0.707106 0.707107 0.000000
vn 0.707106 0.707107 0.000000
vn 0.707106 0.707107 0.000000
vn 0.000000 0.707107 -0.707107
vn 0.000000 0.707107 -0.707107
vn 0.000000 0.707107 -0.707107
vn 0.000000 0.707107 -0.707107
vn 0.707107 0.000000 -0.707106
vn 0.707107 0.000000 -0.707106
vn 0.707107 0.000000 -0.707106
vn 0.707107 0.000000 -0.707106
vn 0.000000 -0.707107 -0.707107
vn 0.000000 -0.707107 -0.707107
vn 0.000000 -0.707107 -0.707107
vn 0.000000 -0.707107 -0.707107
vn 0.000000 0.000000 1.000000
vn 0.000000 0.000000 1.000000
vn 0.000000 0.000000 1.000000
vn 0.000000 0.000000 1.000000
vn 0.000000 1.000000 0.000000
vn 0.000000 1.000000 0.000000
vn 0.000000 1.000000 0.000000
vn 0.000000 1.000000 0.000000
vn 0.000000 0.000000 -1.000000
vn 0.000000 0.000000 -1.000000
vn 0.000000 0.000000 -1.000000
vn 0.000000 0.000000 -1.000000
vn 0.000000 -1.000000 0.000000
vn 0.000000 -1.000000 0.000000
vn 0.000000 -1.000000 0.000000
vn 0.000000 -1.000000 0.000000
vn 1.000000 0.000000 0.000000
vn 1.000000 0.000000 0.000000
vn 1.000000 0.000000 0.000000
vn 1.000000 0.000000 0.000000
vn 0.577350 -0.577351 0.577350
vn 0.577350 -0.577351 0.577350
vn 0.577350 -0.577351 0.577350
vn 0.577350 0.577351 0.577350
vn 0.577350 0.577351 0.577350
vn 0.577350 0.577351 0.577350
vn 0.577350 0.577351 -0.577350
vn 0.577350 0.577351 -0.577350
vn 0.577350 0.577351 -0.577350
vn 0.577350 -0.577351 -0.577350
vn 0.577350 -0.577351 -0.577350
vn 0.577350 -0.577351 -0.577350
g pCylinder5
f 3/3/1 4/4/2 1/1/3 2/2/4 32/43/5
f 5/5/6 6/6/7 7/7/8
f 10/10/9 8/8/10 9/9/11 13/13/12
f 11/11/13 5/5/6 7/7/8
f 6/6/7 12/12/14 7/7/8
f 14/14/15 11/11/13 7/7/8
f 12/12/14 8/15/16 7/7/8
f 8/15/16 10/16/17 7/7/8
f 15/17/18 10/10/9 13/13/12 16/18/19
f 10/16/17 15/19/20 7/7/8
f 17/20/21 18/21/22 19/22/23 20/23/24
f 21/24/25 15/17/18 16/18/19 20/23/26
f 15/19/20 21/25/27 7/7/8
f 21/25/27 22/26/28 7/7/8
f 22/27/29 21/24/25 20/23/26 19/22/30
f 18/21/22 1/1/31 23/28/32 19/22/23
f 22/26/28 24/29/33 7/7/8
f 7/7/8 24/29/33 25/30/34
f 24/31/35 22/27/29 19/22/30 23/28/36
f 26/32/37 23/28/32 1/1/31 4/4/38
f 23/28/36 26/32/39 27/37/40 25/38/41 24/31/35
f 27/33/42 26/34/43 4/35/44 3/36/45
f 28/39/46 17/20/21 20/23/24 16/18/47
f 29/40/48 30/41/49 31/42/50
f 33/44/51 9/9/11 8/8/10 12/48/52
f 11/45/53 14/46/54 31/42/50 30/41/49 35/49/55
f 34/47/56 2/2/4 1/1/3 18/21/57
f 5/50/58 11/45/53 35/49/55 37/53/59
f 36/51/60 33/44/51 12/48/52 6/52/61
f 32/54/62 2/55/63 38/56/64
f 6/52/61 5/50/58 37/53/59 36/51/60
f 2/55/63 34/57/65 38/56/64
f 39/58/66 34/47/56 18/21/57 17/20/67
f 34/57/65 39/59/68 38/56/64
f 40/60/69 28/39/46 16/18/47 13/13/70
f 41/61/71 39/58/66 17/20/67 28/39/72
f 39/59/68 41/62/73 38/56/64
f 41/62/73 42/63/74 38/56/64
f 42/64/75 41/61/71 28/39/72 40/60/76
f 43/65/77 40/60/69 13/13/70 9/9/78
f 42/63/74 44/66/79 38/56/64
f 44/66/79 45/67/80 38/56/64
f 38/56/64 46/68/81 47/69/82
f 44/70/83 42/64/75 40/60/76 43/65/84
f 48/71/85 49/72/86 30/41/87 29/40/88
f 45/67/80 50/73/89 38/56/64
f 51/74/90 46/68/81 38/56/64
f 50/73/89 51/74/90 38/56/64
f 49/72/91 48/71/92 52/75/93
f 53/76/94 43/65/77 9/9/78 33/44/95
f 49/72/86 54/77/96 35/49/97 30/41/87
f 45/78/98 44/70/83 43/65/84 53/76/99
f 50/79/100 45/78/98 53/76/99 56/83/101
f 55/81/102 54/77/103 46/80/104 51/82/105
f 51/82/105 50/79/100 56/83/101 55/81/102
f 56/83/106 53/76/94 33/44/95 36/51/107
f 54/77/96 55/81/108 37/53/109 35/49/97
f 55/81/108 56/83/106 36/51/107 37/53/109
f 47/84/110 52/85/111 31/86/112 14/87/113 7/88/114 25/89/115 27/33/116 3/36/117 32/90/118 38/91/119
f 52/92/120 48/93/121 29/94/122 31/95/123
f 54/77/103 49/72/91 52/75/93 47/96/124 46/80/104
f 73/97/125 72/98/126 57/99/127 58/100/128 63/101/129 62/102/130 68/103/131 67/104/132
f 58/100/133 57/99/134 61/105/135 60/106/136
f 59/107/137 61/108/138 74/109/139 76/110/140
f 60/106/141 59/111/142 66/112/143 65/113/144
f 62/114/145 63/101/146 65/113/147 64/115/148
f 64/115/149 66/116/150 71/117/151 70/118/152
f 67/119/153 68/120/154 70/118/155 69/121/156
f 69/121/157 71/122/158 76/123/159 75/124/160
f 72/125/161 73/126/162 75/124/163 74/109/164
f 58/100/165 60/106/166 65/113/167 63/101/168
f 62/114/169 64/115/170 70/118/171 68/120/172
f 67/119/173 69/121/174 75/124/175 73/126/176
f 72/125/177 74/109/178 61/108/179 57/127/180
f 59/111/181 76/128/182 71/129/183 66/112/184
f 59/111/185 60/106/186 61/105/187
f 64/115/188 65/113/189 66/112/190
f 69/121/191 70/118/192 71/117/193
f 74/109/194 75/124/195 76/123/196
