# This file uses centimeters as units for non-parametric coordinates.

g default
v 195.000504 95.000504 -197.416919
v 200.000000 95.000504 -192.417423
v 200.000000 -95.000504 -192.417423
v 195.000504 -95.000504 -197.416919
v -200.000000 -95.000504 197.583569
v -195.000504 -95.000504 202.583081
v -195.000504 95.000504 202.583081
v -200.000000 95.000504 197.583569
v 195.000504 100.000000 -192.417423
v -195.000504 100.000000 197.583569
v -195.000504 -100.000000 197.583569
v 195.000504 -100.000000 197.583569
v 195.000504 -95.000504 202.583081
v 200.000000 -95.000504 197.583569
v 195.000504 95.000504 202.583081
v 195.000504 100.000000 197.583569
v 200.000000 95.000504 197.583569
v -195.000504 100.000000 -192.417423
v 195.000504 -100.000000 -192.417423
v -200.000000 95.000504 -192.417423
v -195.000504 95.000504 -197.416919
v -200.000000 -95.000504 -192.417423
v -195.000504 -95.000504 -197.416919
v -195.000504 -100.000000 -192.417423
v -30.901711 -95.762627 97.688763
v -32.227448 -99.999992 101.768963
v -61.300255 -99.999992 86.955639
v -58.778549 -95.762627 83.484814
v -0.333444 -99.999992 106.820462
v 0.000042 -95.762627 102.583096
v -84.372566 -99.999992 63.883343
v -80.901733 -95.762627 61.361630
v -61.300247 99.999992 86.955639
v -58.778545 95.762627 83.484814
v -84.372566 99.999992 63.883328
v -80.901733 95.762627 61.361645
v -32.227448 99.999992 101.768963
v -30.901714 95.762627 97.688763
v 0.000024 95.762627 102.583111
v -0.333463 99.999992 106.820477
v 195.762634 -93.245323 -97.416934
v 200.000000 -95.000504 -101.654300
v 193.245316 -95.762627 -97.416934
v 195.000488 -99.999992 -101.654300
v 195.762634 93.245316 -97.416934
v 200.000000 95.000488 -101.654300
v 193.245316 95.762627 -97.416934
v 195.000488 99.999992 -101.654300
v -0.333341 -99.999985 -101.654315
v 0.000142 -95.762619 -97.416950
v 0.000146 95.762619 -97.416950
v -0.333342 99.999985 -101.654315
v 193.245316 -95.762627 102.583096
v 195.000488 -99.999992 106.820462
v 195.762634 -93.245323 102.583096
v 200.000000 -95.000504 106.820462
v 195.762634 93.245323 102.583096
v 200.000000 95.000504 106.820462
v -99.185905 99.999992 34.810528
v -95.105698 95.762627 33.484784
v -104.290230 99.999992 2.583081
v -100.000046 95.762627 2.583081
v -99.185905 99.999992 -29.644367
v -95.105698 95.762627 -28.318630
v -84.372574 99.999992 -58.717174
v -80.901741 95.762627 -56.195468
v -61.300262 99.999992 -81.789501
v -58.778557 95.762627 -78.318668
v -32.227459 99.999992 -96.602840
v -30.901722 95.762627 -92.522632
v 193.245316 95.762627 102.583096
v 195.000488 99.999992 106.820462
v -99.185890 -99.999992 34.810528
v -95.105682 -95.762627 33.484784
v -104.290215 -99.999992 2.583081
v -100.000031 -95.762627 2.583081
v -99.185890 -99.999992 -29.644367
v -95.105682 -95.762627 -28.318630
v -84.372574 -99.999992 -58.717174
v -80.901741 -95.762627 -56.195468
v -32.227459 -99.999992 -96.602840
v -30.901722 -95.762627 -92.522632
v -61.300262 -99.999992 -81.789501
v -58.778557 -95.762627 -78.318668
vt 0.006979 0.396211
vt 0.006979 0.006982
vt 0.196604 0.006982
vt 0.196604 0.396211
vt 0.001990 0.006982
vt 0.001990 0.396211
vt 0.006979 0.001992
vt 0.196604 0.001992
vt 0.201594 0.006982
vt 0.201594 0.396211
vt 0.196604 0.401201
vt 0.006979 0.401201
vt 0.204968 0.803393
vt 0.295552 0.803393
vt 0.295552 0.993018
vt 0.204968 0.993018
vt 0.204968 0.798404
vt 0.295552 0.798404
vt 0.300541 0.993018
vt 0.300541 0.803393
vt 0.295552 0.998008
vt 0.204968 0.998008
vt 0.200739 0.805145
vt 0.200739 0.991267
vt 0.312793 0.803393
vt 0.403377 0.803393
vt 0.403377 0.993018
vt 0.312793 0.993018
vt 0.312793 0.798404
vt 0.403377 0.798404
vt 0.407606 0.805145
vt 0.407606 0.991267
vt 0.312793 0.998008
vt 0.403377 0.998008
vt 0.307803 0.803393
vt 0.307803 0.993018
vt 0.440411 0.802633
vt 0.468232 0.802633
vt 0.468232 0.993779
vt 0.440411 0.993779
vt 0.437894 0.798404
vt 0.466909 0.798404
vt 0.499073 0.802633
vt 0.499073 0.993779
vt 0.437894 0.998008
vt 0.466909 0.998008
vt 0.418331 0.802633
vt 0.418331 0.993779
vt 0.414867 0.798404
vt 0.499073 0.798404
vt 0.529914 0.802633
vt 0.529914 0.993779
vt 0.499073 0.998008
vt 0.414867 0.998008
vt 0.531237 0.798404
vt 0.557735 0.802633
vt 0.557735 0.993779
vt 0.531237 0.998008
vt 0.560252 0.798404
vt 0.579815 0.802633
vt 0.579815 0.993779
vt 0.560252 0.998008
vt 0.583279 0.798404
vt 0.583279 0.998008
vt 0.991823 0.708823
vt 0.991823 0.799407
vt 0.796876 0.708823
vt 0.602593 0.410177
vt 0.796875 0.500761
vt 0.765045 0.505802
vt 0.736029 0.520586
vt 0.713003 0.543613
vt 0.698219 0.572628
vt 0.693124 0.604792
vt 0.698219 0.636956
vt 0.713003 0.665971
vt 0.736029 0.688998
vt 0.765045 0.703782
vt 0.602593 0.799407
vt 0.990071 0.704594
vt 0.797208 0.704594
vt 0.991823 0.410177
vt 0.991823 0.500761
vt 0.766368 0.509874
vt 0.797208 0.504990
vt 0.738546 0.524050
vt 0.738546 0.685534
vt 0.766368 0.699709
vt 0.602593 0.804396
vt 0.991823 0.804396
vt 0.992584 0.704594
vt 0.996813 0.708823
vt 0.602593 0.405187
vt 0.991823 0.405187
vt 0.990071 0.504990
vt 0.996813 0.500761
vt 0.992584 0.504990
vt 0.370977 0.300586
vt 0.402808 0.305628
vt 0.597755 0.305628
vt 0.597755 0.396211
vt 0.372300 0.296514
vt 0.403141 0.301399
vt 0.596004 0.301399
vt 0.208526 0.006982
vt 0.597755 0.006982
vt 0.402808 0.097565
vt 0.370977 0.102607
vt 0.341962 0.117391
vt 0.318935 0.140417
vt 0.304151 0.169433
vt 0.299057 0.201596
vt 0.304151 0.233760
vt 0.318935 0.262775
vt 0.341962 0.285802
vt 0.208526 0.396211
vt 0.344478 0.282338
vt 0.598516 0.301399
vt 0.602745 0.305628
vt 0.208526 0.001992
vt 0.597755 0.001992
vt 0.597755 0.097565
vt 0.403141 0.101794
vt 0.372300 0.106679
vt 0.344478 0.120855
vt 0.208526 0.401201
vt 0.597755 0.401201
vt 0.596004 0.101794
vt 0.602745 0.097565
vt 0.598516 0.101794
vt 0.406840 0.794417
vt 0.406840 0.405187
vt 0.596466 0.405187
vt 0.596466 0.794417
vt 0.211087 0.794417
vt 0.211087 0.405187
vt 0.400712 0.405187
vt 0.400712 0.794417
vt 0.204959 0.631403
vt 0.204959 0.659225
vt 0.013813 0.659225
vt 0.013813 0.631403
vt 0.204959 0.600563
vt 0.013813 0.600563
vt 0.204959 0.407700
vt 0.013813 0.407700
vt 0.016325 0.405187
vt 0.202447 0.405187
vt 0.193136 0.665724
vt 0.193136 0.858587
vt 0.001990 0.858587
vt 0.001990 0.665724
vt 0.004502 0.663212
vt 0.190624 0.663212
vt 0.001990 0.889428
vt 0.193136 0.889428
vt 0.001990 0.917249
vt 0.193136 0.917249
vn 0.707107 0.000000 -0.707106
vn 0.707107 0.000000 -0.707106
vn 0.707107 0.000000 -0.707106
vn 0.707107 0.000000 -0.707106
vn -0.707109 0.000000 0.707105
vn -0.707109 0.000000 0.707105
vn -0.707109 0.000000 0.707105
vn -0.707109 0.000000 0.707105
vn 0.577351 0.577351 -0.577349
vn 0.577351 0.577351 -0.577349
vn 0.577351 0.577351 -0.577349
vn -0.577353 0.577350 0.577348
vn -0.577353 0.577350 0.577348
vn -0.577353 0.577350 0.577348
vn 0.000000 -0.707108 0.707106
vn 0.000000 -0.707108 0.707106
vn 0.000000 -0.707108 0.707106
vn 0.000000 -0.707108 0.707106
vn 0.577353 -0.577350 0.577348
vn 0.577353 -0.577350 0.577348
vn 0.577353 -0.577350 0.577348
vn 0.000000 0.000000 1.000000
vn 0.000000 0.000000 1.000000
vn 0.000000 0.000000 1.000000
vn 0.000000 0.000000 1.000000
vn 0.577353 0.577350 0.577348
vn 0.577353 0.577350 0.577348
vn 0.577353 0.577350 0.577348
vn 0.000000 0.707108 0.707106
vn 0.000000 0.707108 0.707106
vn 0.000000 0.707108 0.707106
vn 0.000000 0.707108 0.707106
vn 0.707109 0.000000 0.707105
vn 0.707109 0.000000 0.707105
vn 0.707109 0.000000 0.707105
vn 0.707109 0.000000 0.707105
vn -0.577353 -0.577350 0.577348
vn -0.577353 -0.577350 0.577348
vn -0.577353 -0.577350 0.577348
vn 0.577351 -0.577351 -0.577349
vn 0.577351 -0.577351 -0.577349
vn 0.577351 -0.577351 -0.577349
vn -0.707107 0.707106 0.000000
vn -0.707107 0.707106 0.000000
vn -0.707107 0.707106 0.000000
vn -0.707107 0.707106 0.000000
vn 0.000000 0.707107 -0.707107
vn 0.000000 0.707107 -0.707107
vn 0.000000 0.707107 -0.707107
vn 0.000000 0.707107 -0.707107
vn -0.577351 0.577351 -0.577349
vn -0.577351 0.577351 -0.577349
vn -0.577351 0.577351 -0.577349
vn -1.000000 0.000000 0.000000
vn -1.000000 0.000000 0.000000
vn -1.000000 0.000000 0.000000
vn -1.000000 0.000000 0.000000
vn 0.000000 0.000000 -1.000000
vn 0.000000 0.000000 -1.000000
vn 0.000000 0.000000 -1.000000
vn 0.000000 0.000000 -1.000000
vn -0.577351 -0.577351 -0.577349
vn -0.577351 -0.577351 -0.577349
vn -0.577351 -0.577351 -0.577349
vn -0.707107 -0.707106 0.000000
vn -0.707107 -0.707106 0.000000
vn -0.707107 -0.707106 0.000000
vn -0.707107 -0.707106 0.000000
vn 0.000000 -0.707107 -0.707107
vn 0.000000 -0.707107 -0.707107
vn 0.000000 -0.707107 -0.707107
vn 0.000000 -0.707107 -0.707107
vn -0.707107 0.000000 -0.707106
vn -0.707107 0.000000 -0.707106
vn -0.707107 0.000000 -0.707106
vn -0.707107 0.000000 -0.707106
vn 0.217431 -0.711472 -0.668230
vn 0.217431 -0.711472 -0.668230
vn 0.413045 -0.711473 -0.568507
vn 0.413045 -0.711473 -0.568507
vn 0.015565 -0.707633 -0.706409
vn 0.015565 -0.707633 -0.706409
vn 0.568507 -0.711473 -0.413045
vn 0.568507 -0.711473 -0.413044
vn 0.000000 -0.707106 -0.707107
vn 0.000000 -0.707106 -0.707107
vn 0.668320 -0.711473 -0.217150
vn 0.668320 -0.711473 -0.217150
vn 0.413045 0.711472 -0.568508
vn 0.413045 0.711472 -0.568508
vn 0.568508 0.711472 -0.413045
vn 0.568508 0.711472 -0.413045
vn 0.217431 0.711472 -0.668230
vn 0.217431 0.711472 -0.668230
vn 0.668320 0.711473 -0.217150
vn 0.668320 0.711473 -0.217150
vn 0.015565 0.707633 -0.706409
vn 0.015565 0.707633 -0.706409
vn 0.000000 0.707106 -0.707107
vn 0.000000 0.707106 -0.707107
vn 0.707107 0.000000 0.707107
vn 0.707107 0.000000 0.707107
vn 0.707107 0.000000 0.707107
vn 0.707107 0.000000 0.707107
vn 0.499998 -0.500001 0.707107
vn 0.499999 -0.500001 0.707107
vn 0.499999 -0.500001 0.707107
vn 0.499998 -0.500001 0.707107
vn -0.000000 -0.707107 0.707107
vn -0.000000 -0.707107 0.707107
vn 0.015565 -0.707633 0.706408
vn 0.015565 -0.707633 0.706408
vn 0.499999 0.500000 0.707107
vn 0.499999 0.500000 0.707107
vn 0.499999 0.500000 0.707107
vn 0.499999 0.500000 0.707107
vn -0.000000 0.707106 0.707107
vn -0.000000 0.707106 0.707107
vn 0.015565 0.707633 0.706409
vn 0.015565 0.707633 0.706409
vn 0.217430 -0.711473 0.668229
vn 0.217430 -0.711473 0.668229
vn 0.217430 0.711473 0.668229
vn 0.217430 0.711473 0.668229
vn 0.499998 -0.500002 -0.707107
vn 0.499998 -0.500002 -0.707107
vn 0.499998 -0.500002 -0.707107
vn 0.499998 -0.500002 -0.707107
vn 0.707107 0.000000 -0.707106
vn 0.707107 0.000000 -0.707106
vn 0.707107 0.000000 -0.707106
vn 0.707107 0.000000 -0.707106
vn 0.499998 0.500002 -0.707107
vn 0.499998 0.500002 -0.707107
vn 0.499998 0.500002 -0.707107
vn 0.499998 0.500002 -0.707107
vn 0.702713 0.711473 -0.000000
vn 0.702713 0.711473 -0.000000
vn 0.668320 0.711473 0.217150
vn 0.668320 0.711473 0.217150
vn 0.568508 0.711473 0.413044
vn 0.568508 0.711473 0.413044
vn 0.413045 0.711473 0.568507
vn 0.413045 0.711473 0.568507
vn 0.702713 -0.711473 0.000000
vn 0.702713 -0.711473 0.000000
vn 0.668320 -0.711473 0.217150
vn 0.668320 -0.711473 0.217150
vn 0.568507 -0.711473 0.413044
vn 0.568507 -0.711473 0.413044
vn 0.413045 -0.711473 0.568507
vn 0.413045 -0.711473 0.568507
vn 0.309017 0.000000 -0.951057
vn 0.587785 0.000000 -0.809017
vn 0.587785 0.000000 -0.809017
vn 0.309017 0.000000 -0.951057
vn 1.000000 0.000000 0.000000
vn 1.000000 0.000000 0.000000
vn 1.000000 0.000000 0.000000
vn 1.000000 0.000000 0.000000
vn -0.000000 0.000000 1.000000
vn 0.021591 -0.000000 0.999767
vn 0.021591 -0.000000 0.999767
vn -0.000000 0.000000 1.000000
vn -0.000000 0.000000 1.000000
vn -0.000000 0.000000 1.000000
vn -0.000000 1.000000 0.000000
vn 0.000000 1.000000 0.000000
vn 0.000000 1.000000 0.000000
vn 0.021591 0.000000 -0.999767
vn 0.021591 0.000000 -0.999767
vn 0.000000 -1.000000 0.000000
vn 0.000000 -1.000000 0.000000
vn 0.000000 -1.000000 0.000000
vn 0.000000 -1.000000 0.000000
vn 0.707106 0.707108 0.000000
vn 0.707106 0.707108 0.000000
vn 0.707106 0.707108 0.000000
vn 0.707106 0.707108 0.000000
vn 0.707105 -0.707108 -0.000000
vn 0.707105 -0.707108 -0.000000
vn 0.707105 -0.707108 -0.000000
vn 0.707105 -0.707108 -0.000000
vn 0.000000 1.000000 0.000000
vn 0.000000 1.000000 -0.000000
vn 0.000000 1.000000 0.000000
vn 0.000000 1.000000 0.000000
vn 0.000000 1.000000 0.000000
vn 0.000000 1.000000 0.000000
vn 0.000000 1.000000 0.000000
vn 0.000000 1.000000 0.000000
vn 0.000000 1.000000 0.000000
vn 0.000000 1.000000 0.000000
vn 0.000000 1.000000 0.000000
vn 0.000000 1.000000 0.000000
vn 1.000000 0.000000 0.000000
vn 1.000000 0.000000 0.000000
vn 1.000000 0.000000 0.000000
vn 1.000000 0.000000 0.000000
vn -0.000000 1.000000 -0.000000
vn -0.000000 1.000000 -0.000000
vn 0.707105 0.707108 -0.000000
vn 0.707105 0.707108 -0.000000
vn 0.707105 0.707108 -0.000000
vn 0.707105 0.707108 -0.000000
vn -0.000000 0.000000 -1.000000
vn -0.000000 0.000000 -1.000000
vn -0.000000 0.000000 -1.000000
vn -0.000000 0.000000 -1.000000
vn 0.809017 0.000000 -0.587785
vn 0.809017 0.000000 -0.587785
vn 0.951057 0.000000 -0.309017
vn 0.951057 0.000000 -0.309017
vn 0.707105 -0.707108 0.000000
vn 0.707105 -0.707108 0.000000
vn 0.707105 -0.707108 0.000000
vn 0.707105 -0.707108 0.000000
vn 1.000000 0.000000 0.000000
vn 1.000000 0.000000 0.000000
vn 0.951057 0.000000 0.309017
vn 0.951057 0.000000 0.309017
vn 0.309016 -0.000000 0.951057
vn 0.309016 -0.000000 0.951057
vn -0.000000 -1.000000 0.000000
vn 0.000000 -1.000000 0.000000
vn 0.000000 -1.000000 0.000000
vn 0.809017 0.000000 0.587785
vn 0.809017 0.000000 0.587785
vn 0.587785 0.000000 0.809017
vn 0.587785 0.000000 0.809017
vn 0.000000 -1.000000 0.000000
vn 0.000000 -1.000000 0.000000
vn 0.000000 -1.000000 0.000000
vn 0.000000 -1.000000 0.000000
vn 0.000000 -1.000000 0.000000
vn 0.000000 -1.000000 0.000000
vn 0.000000 -1.000000 0.000000
vn 0.000000 -1.000000 0.000000
vn 0.000000 -1.000000 0.000000
vn 0.000000 -1.000000 0.000000
g pCube8
f 1/19/1 2/15/2 3/14/3 4/20/4
f 5/2/5 6/7/6 7/8/7 8/3/8
f 1/19/9 9/21/10 2/15/11
f 8/3/12 7/8/13 10/9/14
f 6/126/15 11/116/16 12/101/17 13/127/18
f 14/25/19 13/35/20 12/29/21
f 6/131/22 13/132/23 15/133/24 7/134/25
f 16/33/26 15/36/27 17/28/28
f 10/68/29 7/93/30 15/94/31 16/82/32
f 13/35/33 14/25/34 17/28/35 15/36/36
f 11/5/37 6/7/38 5/2/39
f 19/18/40 4/20/41 3/14/42
f 8/3/43 10/9/44 18/10/45 20/4/46
f 21/89/47 18/79/48 9/66/49 1/90/50
f 20/4/51 18/10/52 21/11/53
f 22/1/54 5/2/55 8/3/56 20/4/57
f 21/135/58 1/136/59 4/137/60 23/138/61
f 22/1/62 23/12/63 24/6/64
f 11/5/65 5/2/66 22/1/67 24/6/68
f 24/105/69 23/120/70 4/121/71 19/106/72
f 20/4/73 21/11/74 23/12/75 22/1/76
f 25/102/77 26/98/78 27/115/79 28/117/80
f 26/98/78 25/102/77 30/103/81 29/99/82
f 28/47/80 27/49/79 31/41/83 32/37/84
f 29/99/82 30/103/81 53/104/85 54/100/86
f 32/37/84 31/41/83 73/42/87 74/38/88
f 33/54/89 34/48/90 36/40/91 35/45/92
f 34/86/90 33/71/89 37/70/93 38/84/94
f 35/45/92 36/40/91 60/39/95 59/46/96
f 38/84/94 37/70/93 40/69/97 39/85/98
f 39/85/98 40/69/97 72/83/99 71/95/100
f 41/23/101 42/13/102 46/16/103 45/24/104
f 42/129/105 41/130/106 43/128/107 44/122/108
f 44/122/109 43/128/110 50/123/111 49/107/112
f 45/91/113 46/92/114 48/65/115 47/80/116
f 47/80/117 48/65/118 52/67/119 51/81/120
f 49/107/112 50/123/111 82/124/121 81/108/122
f 51/81/120 52/67/119 69/78/123 70/88/124
f 54/100/125 53/104/126 55/118/127 56/119/128
f 56/26/129 55/31/130 57/32/131 58/27/132
f 58/96/133 57/97/134 71/95/135 72/83/136
f 59/46/96 60/39/95 62/44/137 61/53/138
f 61/53/138 62/44/137 64/52/139 63/58/140
f 63/58/140 64/52/139 66/57/141 65/62/142
f 65/62/142 66/57/141 68/61/143 67/64/144
f 67/77/144 68/87/143 70/88/124 69/78/123
f 74/38/88 73/42/87 75/50/145 76/43/146
f 76/43/146 75/50/145 77/55/147 78/51/148
f 78/51/148 77/55/147 79/59/149 80/56/150
f 80/56/150 79/59/149 83/63/151 84/60/152
f 81/108/122 82/124/121 84/125/152 83/109/151
f 25/139/153 28/140/154 34/141/155 38/142/156
f 42/13/157 3/14/158 2/15/159 46/16/160
f 47/149/161 51/150/162 50/151/163 43/152/164 41/153/165 45/154/166
f 48/65/167 9/66/168 52/67/169
f 30/143/170 25/139/153 38/142/156 39/144/171
f 26/98/172 29/99/173 54/100/174 12/101/175
f 46/16/176 2/15/177 9/21/178 48/22/179
f 14/25/180 12/29/181 54/30/182 56/26/183
f 10/68/184 40/69/185 37/70/186 33/71/187 35/72/188 59/73/189 61/74/190 63/75/191 65/76/192 67/77/193 69/78/194 52/67/169 9/66/168 18/79/195
f 14/25/196 56/26/197 58/27/198 17/28/199
f 10/68/184 16/82/200 72/83/201 40/69/185
f 16/33/202 17/28/203 58/27/204 72/34/205
f 53/145/206 30/143/170 39/144/171 71/146/207 57/147/208 55/148/209
f 28/47/154 32/37/210 36/40/211 34/48/155
f 32/37/210 74/38/212 60/39/213 36/40/211
f 44/17/214 19/18/215 3/14/216 42/13/217
f 74/38/212 76/43/218 62/44/219 60/39/213
f 76/43/218 78/51/220 64/52/221 62/44/219
f 82/155/222 50/151/163 51/150/162 70/156/223
f 44/122/224 49/107/225 19/106/226
f 78/51/220 80/56/227 66/57/228 64/52/221
f 84/157/229 82/155/222 70/156/223 68/158/230
f 80/56/227 84/60/229 68/61/230 66/57/228
f 24/105/231 19/106/226 49/107/225 81/108/232 83/109/233 79/110/234 77/111/235 75/112/236 73/113/237 31/114/238 27/115/239 26/98/172 12/101/175 11/116/240
