# This file uses centimeters as units for non-parametric coordinates.

g default
v -100.000000 97.408043 -97.408043
v -97.408043 100.000000 -97.408043
v -97.408043 97.408043 -100.000000
v 96.791504 97.544319 -96.791504
v 95.714302 97.680595 -100.000000
v 92.929642 100.000000 -97.071358
v -100.000000 -97.408043 -97.408043
v -97.408043 -97.408043 -100.000000
v -97.408043 -100.000000 -97.408043
v 92.929642 -100.000000 -97.071358
v 95.462494 -97.544319 -100.000000
v 96.791504 -97.544319 -96.791504
v -96.791504 -97.544319 96.791504
v -100.000000 -97.680595 95.714302
v -97.071358 -100.000000 92.929642
v -97.071358 100.000000 92.929642
v -100.000000 97.544319 95.462494
v -96.791504 97.544319 96.791504
vt 0.375000 0.746760
vt 0.128240 0.250000
vt 0.128240 0.246760
vt 0.366162 0.250000
vt 0.378240 0.496760
vt 0.616162 0.496339
vt 0.378661 0.258838
vt 0.620989 0.505198
vt 0.128240 0.000000
vt 0.378240 0.746760
vt 0.619328 0.746930
vt 0.620989 0.750941
vt 0.379011 0.992920
vt 0.378661 0.991162
vt 0.370989 0.003070
vt 0.370989 0.246930
vt 0.369328 0.246930
vt 0.378240 0.503240
vt 0.619643 0.502899
vt 0.128240 0.003240
vt 0.369643 0.002899
vt 0.378240 0.753240
vt 0.616162 0.753661
vt 0.379011 0.263219
vt 0.375000 0.503240
vt 0.366162 0.000000
vn -0.707107 0.000000 -0.707107
vn -0.707107 0.000000 -0.707107
vn -0.707107 0.000000 -0.707107
vn -0.707107 0.000000 -0.707107
vn -0.674702 0.738090 0.000330
vn -0.674702 0.738090 0.000330
vn -0.674702 0.738090 0.000330
vn -0.674702 0.738090 0.000330
vn 0.000053 0.747144 -0.664662
vn 0.000053 0.747144 -0.664662
vn 0.000053 0.747144 -0.664662
vn 0.000053 0.747144 -0.664662
vn 0.454331 0.766267 0.454333
vn 0.454331 0.766267 0.454333
vn 0.454331 0.766267 0.454333
vn 0.454331 0.766267 0.454333
vn 0.936333 -0.000604 -0.351113
vn 0.936333 -0.000604 -0.351113
vn 0.936333 -0.000604 -0.351113
vn 0.936333 -0.000604 -0.351113
vn -0.664664 -0.747143 0.000053
vn -0.664664 -0.747143 0.000053
vn -0.664664 -0.747143 0.000053
vn -0.664664 -0.747143 0.000053
vn 0.000330 -0.738089 -0.674703
vn 0.000330 -0.738089 -0.674703
vn 0.000330 -0.738089 -0.674703
vn 0.000330 -0.738089 -0.674703
vn 0.454331 -0.766267 0.454333
vn 0.454331 -0.766267 0.454333
vn 0.454331 -0.766267 0.454333
vn 0.454331 -0.766267 0.454333
vn -0.351114 0.000604 0.936333
vn -0.351114 0.000604 0.936333
vn -0.351114 0.000604 0.936333
vn -0.351114 0.000604 0.936333
vn 0.000000 0.000000 -1.000000
vn 0.000000 0.000000 -1.000000
vn 0.000000 0.000000 -1.000000
vn 0.000000 0.000000 -1.000000
vn -1.000000 -0.000000 0.000000
vn -1.000000 -0.000000 0.000000
vn -1.000000 -0.000000 0.000000
vn -1.000000 -0.000000 0.000000
vn 0.000000 -1.000000 -0.000000
vn 0.000000 -1.000000 -0.000000
vn 0.000000 -1.000000 -0.000000
vn 0.000000 1.000000 -0.000000
vn 0.000000 1.000000 -0.000000
vn 0.000000 1.000000 -0.000000
vn 0.707107 0.000000 0.707107
vn 0.707107 0.000000 0.707107
vn 0.707107 0.000000 0.707107
vn 0.707107 0.000000 0.707107
vn -0.577350 0.577350 -0.577350
vn -0.577350 0.577350 -0.577350
vn -0.577350 0.577350 -0.577350
vn 0.538361 0.830060 -0.145489
vn 0.538361 0.830060 -0.145489
vn 0.538361 0.830060 -0.145489
vn -0.577350 -0.577350 -0.577350
vn -0.577350 -0.577350 -0.577350
vn -0.577350 -0.577350 -0.577350
vn 0.534637 -0.815548 -0.221459
vn 0.534638 -0.815548 -0.221459
vn 0.534637 -0.815548 -0.221459
vn -0.145488 -0.830059 0.538363
vn -0.145488 -0.830059 0.538363
vn -0.145488 -0.830059 0.538363
vn -0.221458 0.815549 0.534637
vn -0.221458 0.815548 0.534637
vn -0.221458 0.815548 0.534637
g pCube14
f 1/25/1 3/18/2 8/10/3 7/1/4
f 2/2/5 1/3/6 17/17/7 16/4/8
f 3/18/9 2/5/10 6/6/11 5/19/12
f 4/8/13 6/6/14 16/7/15 18/24/16
f 5/19/17 4/8/18 12/12/19 11/11/20
f 7/20/21 9/9/22 15/26/23 14/21/24
f 9/22/25 8/10/26 11/11/27 10/23/28
f 10/23/29 12/12/30 13/13/31 15/14/32
f 14/21/33 13/15/34 18/16/35 17/17/36
f 3/18/37 5/19/38 11/11/39 8/10/40
f 7/20/41 14/21/42 17/17/43 1/3/44
f 9/22/45 10/23/46 15/14/47
f 16/7/48 6/6/49 2/5/50
f 12/12/51 4/8/52 18/24/53 13/13/54
f 1/25/55 2/5/56 3/18/57
f 4/8/58 5/19/59 6/6/60
f 7/1/61 8/10/62 9/22/63
f 10/23/64 11/11/65 12/12/66
f 13/15/67 14/21/68 15/26/69
f 16/4/70 17/17/71 18/16/72
